IKResults
version=1
nRows=16
nColumns=40
inDegrees=yes

Units are S.I. units (second, meters, Newtons, ...)
Angles are in degrees.

endheader
time	pelvis_tilt	pelvis_list	pelvis_rotation	pelvis_tx	pelvis_ty	pelvis_tz	hip_flexion_r	hip_adduction_r	hip_rotation_r	knee_angle_r	knee_angle_r_beta	ankle_angle_r	subtalar_angle_r	mtp_angle_r	hip_flexion_l	hip_adduction_l	hip_rotation_l	knee_angle_l	knee_angle_l_beta	ankle_angle_l	subtalar_angle_l	mtp_angle_l	lumbar_extension	lumbar_bending	lumbar_rotation	arm_flex_r	arm_add_r	arm_rot_r	elbow_flex_r	pro_sup_r	wrist_flex_r	wrist_dev_r	arm_flex_l	arm_add_l	arm_rot_l	elbow_flex_l	pro_sup_l	wrist_flex_l	wrist_dev_l
      0.00000000	     12.04244187	      4.39597374	     -0.24980687	     -1.07347924	      0.93181604	      1.43952799	    -26.60246045	     -5.60770295	    -11.22523024	    -16.58359983	     -0.28943842	     12.89723535	      2.24280148	     -5.38735268	      7.51079240	     -3.64717895	     24.58439280	     -9.85869504	     -0.17206669	      0.30015222	    -13.36945582	    -11.87607023	    -25.32487005	     -6.78394592	      4.42122885	      0.09838641	    -13.70186568	      0.44843688	     40.91780114	     89.95437384	      0.00000000	      0.00000000	    -13.37010791	      8.32737212	     10.12763998	     13.91004891	     89.95437384	      0.00000000	      0.00000000
      0.01000000	     12.01152106	      4.35984494	     -0.23998627	     -1.06504908	      0.93111154	      1.43882684	    -26.85907443	     -5.66215756	    -10.97118187	    -17.09374278	     -0.29834209	     12.62949401	      2.21845795	     -5.33789855	      7.37234105	     -3.65540171	     24.58267137	    -10.01033071	     -0.17471323	      0.47575461	    -13.12473770	    -11.74505747	    -25.10117203	     -6.73018407	      4.47807628	      0.03666184	    -13.67442779	      0.47554186	     40.62269715	     89.95437384	      0.00000000	      0.00000000	    -13.65481609	      8.16433109	     10.01958120	     13.91412154	     89.95437384	      0.00000000	      0.00000000
      0.02000000	     11.80304713	      4.34702866	     -0.17077069	     -1.05623157	      0.93012260	      1.43807465	    -26.90438856	     -5.70683081	    -10.70932014	    -17.69886810	     -0.30890352	     12.28081353	      2.15851800	     -5.24632315	      7.41309212	     -3.66563237	     24.27403236	    -10.48284579	     -0.18296017	      0.42047740	    -12.67087388	    -11.52384603	    -24.63839554	     -6.70561746	      4.50882233	     -0.29926731	    -13.64675207	      0.48486096	     40.58690544	     89.95437384	      0.00000000	      0.00000000	    -14.03864328	      8.03817969	      9.97283927	     14.12679302	     89.95437384	      0.00000000	      0.00000000
      0.03000000	     12.29994308	      4.42045167	     -0.85226498	     -1.04661064	      0.93026171	      1.43805247	    -27.64495657	     -6.15622870	     -9.85781095	    -18.25208282	     -0.31855894	     11.41541083	      1.92978054	     -5.15755685	      6.40364250	     -3.69995020	     25.15507927	    -10.87794152	     -0.18985590	      1.11316603	    -11.88518733	    -11.37995746	    -24.79399022	     -7.01303826	      5.02715423	     -0.32587545	    -13.60706977	      0.60714526	     40.00227931	     89.95437384	      0.00000000	      0.00000000	    -14.24228958	      7.88049635	      9.55894713	     13.93490251	     89.95437384	      0.00000000	      0.00000000
      0.04000000	     12.05803302	      4.38814614	     -0.80375854	     -1.03714942	      0.92912248	      1.43710591	    -27.62005920	     -6.19796454	     -9.56481501	    -18.93513831	     -0.33048051	     11.06915504	      1.84823603	     -5.06105017	      6.28399796	     -3.70144777	     24.72368866	    -11.48055119	     -0.20037342	      1.00282144	    -11.40850646	    -11.14366178	    -24.24326216	     -6.97312162	      5.01602262	     -0.73879540	    -13.57719077	      0.61945347	     39.96515021	     89.95437384	      0.00000000	      0.00000000	    -14.61018828	      7.75794401	      9.50154791	     14.16417041	     89.95437384	      0.00000000	      0.00000000
      0.05000000	     12.47509662	      4.29911810	     -1.47733324	     -1.02744362	      0.92918160	      1.43714678	    -28.12269054	     -6.44656544	     -8.40883052	    -19.75557437	     -0.34479982	     10.15046635	      1.14460826	     -4.89837034	      5.40044946	     -3.57976971	     25.28556795	    -12.19629857	     -0.21286557	      1.36719582	     -9.82413038	    -10.84858112	    -24.32152796	     -7.14496273	      5.61305740	     -0.86083265	    -13.55063178	      0.73586573	     39.44453495	     89.95437384	      0.00000000	      0.00000000	    -14.65016666	      7.64104178	      8.94829156	     13.91967374	     89.95437384	      0.00000000	      0.00000000
      0.06000000	     12.62562155	      4.48922906	     -1.71819411	     -1.01749036	      0.92909508	      1.43646162	    -28.49399622	     -6.79971108	     -7.88592040	    -20.38516671	     -0.35578828	      9.29629406	      0.46361028	     -4.74722306	      4.85817904	     -3.80225619	     25.96147047	    -12.56549284	     -0.21930922	     -0.05010243	     -8.87681347	    -10.52849271	    -24.14551384	     -7.46045509	      5.68438217	     -1.09062024	    -13.40504981	      0.73942647	     38.98243005	     89.95437384	      0.00000000	      0.00000000	    -14.75742361	      7.59591104	      8.52246680	     13.82333145	     89.95437384	      0.00000000	      0.00000000
      0.07000000	     12.72236783	      4.70915217	     -1.87286776	     -1.00791091	      0.92920787	      1.43551029	    -28.68285085	     -7.20554634	     -7.55365923	    -21.22722588	     -0.37048498	      8.34677504	      0.24618471	     -4.60965965	      4.38029113	     -4.04448655	     26.27706383	    -12.62638016	     -0.22037191	     -1.65661153	     -8.49279163	    -10.31874490	    -23.98612072	     -7.77260672	      5.64513995	     -1.14999596	    -13.24907516	      0.84746025	     38.25781643	     89.95437384	      0.00000000	      0.00000000	    -14.63884294	      7.53354921	      8.21381506	     13.55056985	     89.95437384	      0.00000000	      0.00000000
      0.08000000	     12.48858271	      4.74908458	     -1.69244653	     -0.99786354	      0.92875131	      1.43426061	    -28.70300111	     -7.23517439	     -7.24937684	    -21.89721491	     -0.38217850	      7.98263656	      0.25540879	     -4.52761148	      4.31932457	     -4.04220521	     25.95891422	    -12.99835989	     -0.22686418	     -1.81717832	     -8.22301966	    -10.12946230	    -23.46074645	     -7.79199806	      5.43950428	     -1.68923114	    -13.14559516	      0.87004838	     38.19093553	     89.95437384	      0.00000000	      0.00000000	    -14.77787462	      7.49546863	      8.17025206	     13.81243685	     89.95437384	      0.00000000	      0.00000000
      0.09000000	     12.86027539	      5.29324361	     -2.23660120	     -0.98732478	      0.92969452	      1.43345908	    -28.92367467	     -8.23687138	     -7.13348313	    -23.14396714	     -0.40393843	      5.80703482	     -0.17439853	     -4.25056435	      2.95334976	     -4.81322076	     26.81507081	    -11.97113329	     -0.20893569	     -3.41496917	     -8.87247968	    -10.26664588	    -23.45421703	     -8.55676275	      5.54178380	     -1.71319051	    -12.84617305	      0.72640849	     37.12413537	     89.95437384	      0.00000000	      0.00000000	    -14.45229270	      7.46839660	      7.62305781	     13.14273997	     89.95437384	      0.00000000	      0.00000000
      0.10000000	     12.99984336	      5.47787676	     -2.27531308	     -0.97715175	      0.93024071	      1.43226066	    -29.01337496	     -8.59261230	     -7.04070371	    -24.25569773	     -0.42334179	      4.65024145	     -0.23717711	     -4.09350125	      2.35056345	     -5.01895478	     26.96167008	    -12.28682217	     -0.21444550	     -3.24152859	     -8.96970763	    -10.29456823	    -23.33693774	     -8.80461087	      5.33713125	     -1.92579152	    -12.63316122	      0.72129213	     36.51881233	     89.95437384	      0.00000000	      0.00000000	    -14.27079016	      7.46805710	      7.27700848	     13.04130655	     89.95437384	      0.00000000	      0.00000000
      0.11000000	     13.10252739	      5.73784092	     -2.36890833	     -0.96687366	      0.93092280	      1.43099223	    -28.95800908	     -9.07633153	     -6.97404250	    -25.49969926	     -0.44505371	      3.08650089	     -0.42929163	     -3.88482864	      1.76213560	     -5.30551165	     27.08702824	    -12.67722977	     -0.22125940	     -2.90016960	     -9.23928157	    -10.35704339	    -23.16037913	     -9.13607040	      5.14668351	     -2.09518403	    -12.43274550	      0.79221586	     35.76150783	     89.95437384	      0.00000000	      0.00000000	    -13.98212898	      7.48141659	      6.83232221	     12.85171657	     89.95437384	      0.00000000	      0.00000000
      0.12000000	     13.25634505	      5.98936045	     -2.26730217	     -0.95688998	      0.93196542	      1.42964711	    -28.89194625	     -9.33762674	     -6.54054435	    -26.87925646	     -0.46913153	      1.64369119	     -0.56007637	     -3.67702678	      1.19325925	     -5.59039376	     26.61781249	    -13.25083741	     -0.23127074	     -2.57968790	     -9.44378688	    -10.31011805	    -23.14244868	     -9.40829610	      4.70533924	     -2.25996483	    -12.23414002	      0.90174925	     35.14478148	     89.95437384	      0.00000000	      0.00000000	    -13.64991996	      7.55068088	      6.51989001	     12.82975005	     89.95437384	      0.00000000	      0.00000000
      0.13000000	     13.52010672	      6.22822684	     -2.47646280	     -0.94621016	      0.93337649	      1.42862120	    -28.75647443	     -9.84122146	     -6.49522617	    -28.35625992	     -0.49491010	     -1.14539917	     -1.29166158	     -3.21327122	      0.11568412	     -5.98061873	     26.61319516	    -13.13548442	     -0.22925745	     -2.09327017	    -10.25996376	    -10.47484870	    -23.04869077	     -9.76800243	      4.66003524	     -2.42905765	    -12.02935706	      1.05465889	     34.12902372	     89.95437384	      0.00000000	      0.00000000	    -13.23840497	      7.62065441	      6.00632801	     12.65209044	     89.95437384	      0.00000000	      0.00000000
      0.14000000	     13.87299825	      6.31195037	     -2.48645104	     -0.93663759	      0.93508314	      1.42760317	    -28.47414994	     -9.95490552	     -5.95069289	    -30.20215181	     -0.52712699	     -2.80775201	     -1.66775517	     -2.94890870	     -0.90758168	     -6.15119360	     26.32095273	    -13.30031193	     -0.23213423	     -1.74869206	    -10.46905473	    -10.42639888	    -23.32463504	     -9.91889795	      4.34794477	     -2.49122830	    -11.84607134	      1.17358162	     33.44313213	     89.95437384	      0.00000000	      0.00000000	    -12.72945794	      7.69711252	      5.67703791	     12.77605963	     89.95437384	      0.00000000	      0.00000000
      0.15000000	     14.37831410	      6.49673804	     -3.08316438	     -0.92621341	      0.93720017	      1.42724870	    -28.20745620	    -10.41190537	     -5.14658277	    -31.97696060	     -0.55810325	     -5.56900892	     -3.99594875	     -2.01251092	     -2.75083689	     -6.70664276	     26.63768148	    -12.08191802	     -0.21086925	     -1.95600883	    -11.07455329	    -10.64901065	    -23.52096336	    -10.35850544	      4.64156952	     -2.76458633	    -11.71171831	      1.35646349	     32.74322003	     89.95437384	      0.00000000	      0.00000000	    -12.28795685	      7.88189039	      4.72557407	     12.96017147	     89.95437384	      0.00000000	      0.00000000
